<svg width="152" height="20" viewBox="0 0 152 20" fill="none" xmlns="http://www.w3.org/2000/svg">
<path fill-rule="evenodd" clip-rule="evenodd" d="M30.7673 17.1521L29.646 19.8726H26.215L32.6735 4.99512H34.49L40.8587 19.8726H37.4277L36.3064 17.1521H30.7673ZM33.5481 10.3085L31.8438 14.3679H35.2299L33.5481 10.3085ZM47.2725 9.09707H47.4519C48.3788 9.09707 49.2646 9.27412 50.1093 9.62835C50.954 9.98258 51.6231 10.4644 52.1164 11.0736L50.5019 12.4976C50.158 12.1292 49.6908 11.8281 49.1002 11.5943C48.5097 11.3605 47.9677 11.2437 47.4743 11.2437H47.295C46.7717 11.2578 46.3531 11.3569 46.039 11.5412C45.7252 11.7254 45.5682 11.9804 45.5682 12.3064C45.5682 12.6038 45.7065 12.8235 45.9831 12.9652C46.2597 13.1069 46.7418 13.2061 47.4295 13.2627L48.192 13.3478C50.9578 13.532 52.3406 14.6371 52.3406 16.6633C52.3406 17.6268 51.9296 18.4237 51.1073 19.0543C50.285 19.6849 49.1936 20 47.8331 20H47.721C46.6148 20 45.5757 19.8123 44.6039 19.4368C43.6321 19.0614 42.9145 18.569 42.451 17.9597L44.0656 16.5145C44.3945 16.8828 44.9103 17.1911 45.613 17.439C46.3158 17.687 47.0108 17.811 47.6986 17.811H47.8108C48.9321 17.811 49.4926 17.4638 49.4926 16.7696C49.4926 16.3728 49.3431 16.0965 49.0441 15.9407C48.7451 15.7848 48.2517 15.6785 47.5641 15.6219L46.9361 15.5581C44.1255 15.3314 42.7201 14.3041 42.7201 12.4764C42.7201 11.4278 43.1537 10.6061 44.0207 10.0109C44.8879 9.41582 45.9719 9.11116 47.2725 9.09707ZM66.0875 19.8726H64.1814L64.0244 18.3635C63.1125 19.4545 61.8716 20 60.3018 20C58.732 20 57.4276 19.4758 56.3886 18.4273C55.3495 17.3788 54.8299 16.0895 54.8299 14.5592C54.8299 13.0289 55.3495 11.736 56.3886 10.6804C57.4276 9.6249 58.732 9.09707 60.3018 9.09707C61.8716 9.09707 63.1125 9.64961 64.0244 10.7548L64.1814 9.24581H66.0875V19.8726ZM60.5709 17.3859C61.3483 17.3859 62.0249 17.1238 62.6004 16.5995C63.176 16.0752 63.4638 15.3951 63.4638 14.5592C63.4638 13.7233 63.176 13.0395 62.6004 12.5083C62.0249 11.9769 61.3483 11.7112 60.5709 11.7112C59.7935 11.7112 59.117 11.9769 58.5414 12.5083C57.9658 13.0395 57.678 13.7233 57.678 14.5592C57.678 15.3951 57.962 16.0752 58.5302 16.5995C59.0983 17.1238 59.7785 17.3859 60.5709 17.3859ZM77.7265 19.8726L75.7978 17.0458C75.4391 16.5216 75.1214 16.1674 74.8449 15.9831C74.5682 15.799 74.1757 15.7069 73.6675 15.7069H72.8825V19.8726H70.0345V4.99512H72.8825V13.114H73.5777C74.0861 13.114 74.4747 13.0219 74.7439 12.8376C75.013 12.6534 75.3269 12.2992 75.6858 11.775L77.4349 9.24581H80.597L78.0853 12.8376C77.5171 13.6737 76.9864 14.1907 76.493 14.3892C77.0014 14.545 77.5694 15.0764 78.1975 15.9831L80.8885 19.8726H77.7265ZM93.7831 19.8726H91.877L91.72 18.3635C90.8081 19.4545 89.5672 20 87.9974 20C86.4276 20 85.1232 19.4758 84.0842 18.4273C83.0451 17.3788 82.5255 16.0895 82.5255 14.5592C82.5255 13.0289 83.0451 11.736 84.0842 10.6804C85.1232 9.6249 86.4276 9.09707 87.9974 9.09707C89.5672 9.09707 90.8081 9.64961 91.72 10.7548L91.877 9.24581H93.7831V19.8726ZM88.2665 17.3859C89.0439 17.3859 89.7205 17.1238 90.296 16.5995C90.8716 16.0752 91.1594 15.3951 91.1594 14.5592C91.1594 13.7233 90.8716 13.0395 90.296 12.5083C89.7205 11.9769 89.0439 11.7112 88.2665 11.7112C87.4891 11.7112 86.8126 11.9769 86.237 12.5083C85.6614 13.0395 85.3736 13.7233 85.3736 14.5592C85.3736 15.3951 85.6576 16.0752 86.2258 16.5995C86.7939 17.1238 87.4741 17.3859 88.2665 17.3859ZM100.466 4.99512V10.2872C101.199 9.49383 102.185 9.09707 103.426 9.09707C104.996 9.09707 106.297 9.6249 107.328 10.6804C108.36 11.736 108.876 13.0289 108.876 14.5592C108.876 16.0895 108.36 17.3788 107.328 18.4273C106.297 19.4758 104.996 20 103.426 20C101.856 20 100.608 19.4545 99.6811 18.3635L99.5242 19.8726H97.6179V4.99512H100.466ZM105.164 12.5083C104.589 11.9769 103.912 11.7112 103.135 11.7112C102.357 11.7112 101.681 11.9769 101.105 12.5083C100.53 13.0395 100.242 13.7233 100.242 14.5592C100.242 15.3951 100.53 16.0752 101.105 16.5995C101.681 17.1238 102.357 17.3859 103.135 17.3859C103.927 17.3859 104.607 17.1238 105.175 16.5995C105.744 16.0752 106.028 15.3951 106.028 14.5592C106.028 13.7233 105.74 13.0395 105.164 12.5083ZM122.622 19.8726H120.716L120.559 18.3635C119.647 19.4545 118.407 20 116.837 20C115.267 20 113.962 19.4758 112.924 18.4273C111.884 17.3788 111.365 16.0895 111.365 14.5592C111.365 13.0289 111.884 11.736 112.924 10.6804C113.962 9.6249 115.267 9.09707 116.837 9.09707C118.407 9.09707 119.647 9.64961 120.559 10.7548L120.716 9.24581H122.622V19.8726ZM117.106 17.3859C117.883 17.3859 118.56 17.1238 119.135 16.5995C119.711 16.0752 119.999 15.3951 119.999 14.5592C119.999 13.7233 119.711 13.0395 119.135 12.5083C118.56 11.9769 117.883 11.7112 117.106 11.7112C116.328 11.7112 115.652 11.9769 115.076 12.5083C114.501 13.0395 114.213 13.7233 114.213 14.5592C114.213 15.3951 114.497 16.0752 115.065 16.5995C115.633 17.1238 116.313 17.3859 117.106 17.3859ZM132.423 9.09707C134.007 9.09707 135.218 9.56109 136.055 10.4891C136.893 11.4171 137.311 12.6747 137.311 14.2616V19.8726H134.463V14.4317C134.463 12.6181 133.633 11.7112 131.974 11.7112C131.122 11.7112 130.464 11.9556 130.001 12.4445C129.537 12.9333 129.305 13.6737 129.305 14.6655V19.8726H126.457V9.24581H128.363L128.565 10.9036C129.343 9.69919 130.628 9.09707 132.423 9.09707ZM148.838 19.8726L146.909 17.0458C146.551 16.5216 146.233 16.1674 145.956 15.9831C145.68 15.799 145.287 15.7069 144.779 15.7069H143.994V19.8726H141.146V4.99512H143.994V13.114H144.689C145.198 13.114 145.586 13.0219 145.855 12.8376C146.125 12.6534 146.438 12.2992 146.797 11.775L148.546 9.24581H151.708L149.197 12.8376C148.629 13.6737 148.098 14.1907 147.605 14.3892C148.113 14.545 148.681 15.0764 149.309 15.9831L152 19.8726H148.838Z" fill="white"/>
<path fill-rule="evenodd" clip-rule="evenodd" d="M3.37853 15.6952L2.06967 16.9356C1.3806 17.5887 0.688461 18.2441 0 18.8974V15.6984L0.0027521 15.6952H3.37853Z" fill="white"/>
<path fill-rule="evenodd" clip-rule="evenodd" d="M15.075 15.6952V19.8528H1.01196L3.01813 17.9521L3.91268 17.1069L5.39952 15.6952H15.075Z" fill="white"/>
<path fill-rule="evenodd" clip-rule="evenodd" d="M15.0751 6.53088V14.3407H6.83179C9.54076 11.7756 12.3276 9.13387 15.0751 6.53088Z" fill="white"/>
<path fill-rule="evenodd" clip-rule="evenodd" d="M20.9715 0.937195V19.8528H16.5043V5.17327C17.3103 4.40968 18.1163 3.64521 18.9195 2.88162L20.9715 0.937195Z" fill="white"/>
<path fill-rule="evenodd" clip-rule="evenodd" d="M19.9395 0C14.5511 5.11164 9.46259 9.93655 4.81065 14.3407H1.41504L16.3695 0H19.9395Z" fill="white"/>
<path fill-rule="evenodd" clip-rule="evenodd" d="M14.3598 0L0 13.7713V0H14.3598Z" fill="white"/>
</svg>
