<svg width="162" height="24" viewBox="0 0 162 24" fill="none" xmlns="http://www.w3.org/2000/svg">
<path fill-rule="evenodd" clip-rule="evenodd" d="M35.7673 17.1521L34.646 19.8726H31.215L37.6735 4.99512H39.49L45.8587 19.8726H42.4277L41.3064 17.1521H35.7673ZM38.5481 10.3085L36.8438 14.3679H40.2299L38.5481 10.3085ZM52.2725 9.09707H52.4519C53.3788 9.09707 54.2646 9.27412 55.1093 9.62835C55.954 9.98258 56.6231 10.4644 57.1164 11.0736L55.5019 12.4976C55.158 12.1292 54.6908 11.8281 54.1002 11.5943C53.5097 11.3605 52.9677 11.2437 52.4743 11.2437H52.295C51.7717 11.2578 51.3531 11.3569 51.039 11.5412C50.7252 11.7254 50.5682 11.9804 50.5682 12.3064C50.5682 12.6038 50.7065 12.8235 50.9831 12.9652C51.2597 13.1069 51.7418 13.2061 52.4295 13.2627L53.192 13.3478C55.9578 13.532 57.3406 14.6371 57.3406 16.6633C57.3406 17.6268 56.9296 18.4237 56.1073 19.0543C55.285 19.6849 54.1936 20 52.8331 20H52.721C51.6148 20 50.5757 19.8123 49.6039 19.4368C48.6321 19.0614 47.9145 18.569 47.451 17.9597L49.0656 16.5145C49.3945 16.8828 49.9103 17.1911 50.613 17.439C51.3158 17.687 52.0108 17.811 52.6986 17.811H52.8108C53.9321 17.811 54.4926 17.4638 54.4926 16.7696C54.4926 16.3728 54.3431 16.0965 54.0441 15.9407C53.7451 15.7848 53.2517 15.6785 52.5641 15.6219L51.9361 15.5581C49.1255 15.3314 47.7201 14.3041 47.7201 12.4764C47.7201 11.4278 48.1537 10.6061 49.0207 10.0109C49.8879 9.41582 50.9719 9.11116 52.2725 9.09707ZM71.0875 19.8726H69.1814L69.0244 18.3635C68.1125 19.4545 66.8716 20 65.3018 20C63.732 20 62.4276 19.4758 61.3886 18.4273C60.3495 17.3788 59.8299 16.0895 59.8299 14.5592C59.8299 13.0289 60.3495 11.736 61.3886 10.6804C62.4276 9.6249 63.732 9.09707 65.3018 9.09707C66.8716 9.09707 68.1125 9.64961 69.0244 10.7548L69.1814 9.24581H71.0875V19.8726ZM65.5709 17.3859C66.3483 17.3859 67.0249 17.1238 67.6004 16.5995C68.176 16.0752 68.4638 15.3951 68.4638 14.5592C68.4638 13.7233 68.176 13.0395 67.6004 12.5083C67.0249 11.9769 66.3483 11.7112 65.5709 11.7112C64.7935 11.7112 64.117 11.9769 63.5414 12.5083C62.9658 13.0395 62.678 13.7233 62.678 14.5592C62.678 15.3951 62.962 16.0752 63.5302 16.5995C64.0983 17.1238 64.7785 17.3859 65.5709 17.3859ZM82.7265 19.8726L80.7978 17.0458C80.4391 16.5216 80.1214 16.1674 79.8449 15.9831C79.5682 15.799 79.1757 15.7069 78.6675 15.7069H77.8825V19.8726H75.0345V4.99512H77.8825V13.114H78.5777C79.0861 13.114 79.4747 13.0219 79.7439 12.8376C80.013 12.6534 80.3269 12.2992 80.6858 11.775L82.4349 9.24581H85.597L83.0853 12.8376C82.5171 13.6737 81.9864 14.1907 81.493 14.3892C82.0014 14.545 82.5694 15.0764 83.1975 15.9831L85.8885 19.8726H82.7265ZM98.7831 19.8726H96.877L96.72 18.3635C95.8081 19.4545 94.5672 20 92.9974 20C91.4276 20 90.1232 19.4758 89.0842 18.4273C88.0451 17.3788 87.5255 16.0895 87.5255 14.5592C87.5255 13.0289 88.0451 11.736 89.0842 10.6804C90.1232 9.6249 91.4276 9.09707 92.9974 9.09707C94.5672 9.09707 95.8081 9.64961 96.72 10.7548L96.877 9.24581H98.7831V19.8726ZM93.2665 17.3859C94.0439 17.3859 94.7205 17.1238 95.296 16.5995C95.8716 16.0752 96.1594 15.3951 96.1594 14.5592C96.1594 13.7233 95.8716 13.0395 95.296 12.5083C94.7205 11.9769 94.0439 11.7112 93.2665 11.7112C92.4891 11.7112 91.8126 11.9769 91.237 12.5083C90.6614 13.0395 90.3736 13.7233 90.3736 14.5592C90.3736 15.3951 90.6576 16.0752 91.2258 16.5995C91.7939 17.1238 92.4741 17.3859 93.2665 17.3859ZM105.466 4.99512V10.2872C106.199 9.49383 107.185 9.09707 108.426 9.09707C109.996 9.09707 111.297 9.6249 112.328 10.6804C113.36 11.736 113.876 13.0289 113.876 14.5592C113.876 16.0895 113.36 17.3788 112.328 18.4273C111.297 19.4758 109.996 20 108.426 20C106.856 20 105.608 19.4545 104.681 18.3635L104.524 19.8726H102.618V4.99512H105.466ZM110.164 12.5083C109.589 11.9769 108.912 11.7112 108.135 11.7112C107.357 11.7112 106.681 11.9769 106.105 12.5083C105.53 13.0395 105.242 13.7233 105.242 14.5592C105.242 15.3951 105.53 16.0752 106.105 16.5995C106.681 17.1238 107.357 17.3859 108.135 17.3859C108.927 17.3859 109.607 17.1238 110.175 16.5995C110.744 16.0752 111.028 15.3951 111.028 14.5592C111.028 13.7233 110.74 13.0395 110.164 12.5083ZM127.622 19.8726H125.716L125.559 18.3635C124.647 19.4545 123.407 20 121.837 20C120.267 20 118.962 19.4758 117.924 18.4273C116.884 17.3788 116.365 16.0895 116.365 14.5592C116.365 13.0289 116.884 11.736 117.924 10.6804C118.962 9.6249 120.267 9.09707 121.837 9.09707C123.407 9.09707 124.647 9.64961 125.559 10.7548L125.716 9.24581H127.622V19.8726ZM122.106 17.3859C122.883 17.3859 123.56 17.1238 124.135 16.5995C124.711 16.0752 124.999 15.3951 124.999 14.5592C124.999 13.7233 124.711 13.0395 124.135 12.5083C123.56 11.9769 122.883 11.7112 122.106 11.7112C121.328 11.7112 120.652 11.9769 120.076 12.5083C119.501 13.0395 119.213 13.7233 119.213 14.5592C119.213 15.3951 119.497 16.0752 120.065 16.5995C120.633 17.1238 121.313 17.3859 122.106 17.3859ZM137.423 9.09707C139.007 9.09707 140.218 9.56109 141.055 10.4891C141.893 11.4171 142.311 12.6747 142.311 14.2616V19.8726H139.463V14.4317C139.463 12.6181 138.633 11.7112 136.974 11.7112C136.122 11.7112 135.464 11.9556 135.001 12.4445C134.537 12.9333 134.305 13.6737 134.305 14.6655V19.8726H131.457V9.24581H133.363L133.565 10.9036C134.343 9.69919 135.628 9.09707 137.423 9.09707ZM153.838 19.8726L151.909 17.0458C151.551 16.5216 151.233 16.1674 150.956 15.9831C150.68 15.799 150.287 15.7069 149.779 15.7069H148.994V19.8726H146.146V4.99512H148.994V13.114H149.689C150.198 13.114 150.586 13.0219 150.855 12.8376C151.125 12.6534 151.438 12.2992 151.797 11.775L153.546 9.24581H156.708L154.197 12.8376C153.629 13.6737 153.098 14.1907 152.605 14.3892C153.113 14.545 153.681 15.0764 154.309 15.9831L157 19.8726H153.838Z" fill="white"/>
<path fill-rule="evenodd" clip-rule="evenodd" d="M8.37853 15.6952L7.06967 16.9356C6.3806 17.5887 5.68846 18.2441 5 18.8974V15.6984L5.00275 15.6952H8.37853Z" fill="white"/>
<path fill-rule="evenodd" clip-rule="evenodd" d="M20.075 15.6952V19.8528H6.01196L8.01813 17.9521L8.91268 17.1069L10.3995 15.6952H20.075Z" fill="white"/>
<path fill-rule="evenodd" clip-rule="evenodd" d="M20.0751 6.53088V14.3407H11.8318C14.5408 11.7756 17.3276 9.13387 20.0751 6.53088Z" fill="white"/>
<path fill-rule="evenodd" clip-rule="evenodd" d="M25.9715 0.937195V19.8528H21.5043V5.17327C22.3103 4.40968 23.1163 3.64521 23.9195 2.88162L25.9715 0.937195Z" fill="white"/>
<path fill-rule="evenodd" clip-rule="evenodd" d="M24.9395 0C19.5511 5.11164 14.4626 9.93655 9.81065 14.3407H6.41504L21.3695 0H24.9395Z" fill="white"/>
<path fill-rule="evenodd" clip-rule="evenodd" d="M19.3598 0L5 13.7713V0H19.3598Z" fill="white"/>
</svg>
