<svg width="171" height="34" viewBox="0 0 171 34" fill="none" xmlns="http://www.w3.org/2000/svg">
<path d="M45.3691 18.9841H59.6341V17.1607H48.1578L59.7414 2.46674V1.17968H45.7982V3.00302H56.9527L45.3691 17.5898V18.9841ZM70.3597 19.3059C75.8297 19.3059 79.4764 15.0156 79.4764 10.0819C79.4764 5.14813 75.8297 0.85791 70.3597 0.85791C64.8896 0.85791 61.243 5.14813 61.243 10.0819C61.3502 15.0156 64.9969 19.3059 70.3597 19.3059ZM70.4669 17.3753C66.3912 17.3753 63.3881 14.0503 63.3881 9.97463C63.3881 5.89892 66.284 2.574 70.3597 2.574C74.4354 2.574 77.4385 5.89892 77.4385 9.97463C77.4385 14.1576 74.5426 17.3753 70.4669 17.3753ZM90.7382 19.3059C96.2083 19.3059 99.8549 15.0156 99.8549 10.0819C99.8549 5.14813 96.2083 0.85791 90.7382 0.85791C85.2682 0.85791 81.6215 5.14813 81.6215 10.0819C81.7288 15.0156 85.3754 19.3059 90.7382 19.3059ZM90.8455 17.3753C86.7698 17.3753 83.7666 14.0503 83.7666 9.97463C83.7666 5.89892 86.6625 2.574 90.7382 2.574C94.8139 2.574 97.8171 5.89892 97.8171 9.97463C97.8171 14.1576 94.9212 17.3753 90.8455 17.3753ZM102.644 18.9841H108.864C114.442 18.9841 118.303 15.1229 118.303 10.0819C118.303 5.04087 114.442 1.17968 108.864 1.17968H102.644V18.9841ZM104.681 17.1607V3.00302H108.864C113.369 3.00302 116.265 6.11343 116.265 10.0819C116.265 14.0503 113.369 17.1607 108.864 17.1607H104.681ZM122.164 18.9841H126.133V13.6213H129.136C133.104 13.6213 136.322 11.4762 136.322 7.4005C136.322 3.75381 133.748 1.17968 129.457 1.17968H122.164V18.9841ZM126.133 10.1891V4.71911H129.136C131.066 4.71911 132.353 5.68441 132.353 7.4005C132.353 9.00933 131.174 10.1891 129.243 10.1891H126.133ZM135.571 18.9841H139.539L141.148 15.0156H148.656L150.265 18.9841H154.341L146.833 1.07242H143.186L135.571 18.9841ZM142.65 11.4762L145.01 5.68441L147.369 11.4762H142.65ZM159.274 18.9841H163.243V11.9052L170.107 1.17968H165.603L161.312 8.3658L157.022 1.17968H152.41L159.274 12.0125V18.9841Z" fill="#303493"/>
<path d="M45.4763 32.2838H48.8012C50.4101 32.2838 51.5899 31.5331 51.5899 30.246C51.5899 29.1734 50.8391 28.7444 49.981 28.4226C50.6246 28.2081 51.1609 27.6719 51.1609 26.7066C51.1609 26.1703 50.9463 25.8485 50.6246 25.5267C50.1956 25.0977 49.552 24.8832 48.694 24.8832H45.4763V32.2838ZM46.2271 28.2081V25.634H48.4795C49.552 25.634 50.1956 26.063 50.1956 26.8138C50.1956 27.6719 49.4448 28.1009 48.4795 28.1009H46.2271V28.2081ZM46.2271 31.5331V28.9589H48.5867C49.8738 28.9589 50.6246 29.3879 50.6246 30.246C50.6246 31.104 49.8738 31.5331 48.8012 31.5331H46.2271ZM56.3091 32.3911C58.2397 32.3911 59.4195 31.3185 59.4195 29.1734V24.9905H58.5615V29.2807C58.5615 30.8895 57.7034 31.7476 56.3091 31.7476C54.8075 31.7476 53.9495 30.8895 53.9495 29.2807V24.9905H53.0915V29.2807C53.0915 31.2113 54.3785 32.3911 56.3091 32.3911ZM63.817 32.2838H64.6751V29.3879L67.7855 24.9905H66.8202L64.246 28.6372L61.6719 24.9905H60.5993L63.7098 29.4952V32.2838H63.817ZM73.041 32.2838H73.899V26.2775L78.8328 32.2838H79.4763V24.8832H78.6183V30.7823L73.899 24.8832H73.1482V32.2838H73.041ZM85.0536 32.3911C87.306 32.3911 88.9148 30.5678 88.9148 28.5299C88.9148 26.492 87.4132 24.6687 85.0536 24.6687C82.8012 24.6687 81.1924 26.492 81.1924 28.5299C81.1924 30.675 82.8012 32.3911 85.0536 32.3911ZM85.0536 31.6403C83.3375 31.6403 82.0504 30.246 82.0504 28.6372C82.0504 26.9211 83.2303 25.634 85.0536 25.634C86.8769 25.634 88.0568 27.0283 88.0568 28.6372C88.0568 30.246 86.8769 31.6403 85.0536 31.6403ZM92.4542 32.2838H93.205L95.2429 26.2775L97.2807 32.2838H98.0315L100.713 24.8832H99.8549L97.7098 30.9968L95.6719 24.776H94.9211L92.8833 30.9968L90.7381 24.8832H89.7728L92.4542 32.2838ZM101.142 33.5709C102 33.3564 102.322 32.9274 102.322 32.1766V31.2113H101.356V32.2838H101.785L101.464 32.3911C101.035 32.4984 101.571 33.0346 101.035 33.2491L101.142 33.5709ZM107.792 32.2838H108.65V29.7097H110.473C112.082 29.7097 113.476 28.8517 113.476 27.2428C113.476 25.7413 112.404 24.8832 110.688 24.8832H107.899V32.2838H107.792ZM108.65 28.8517V25.634H110.58C111.76 25.634 112.618 26.1703 112.618 27.2428C112.618 28.2081 111.76 28.8517 110.58 28.8517H108.65ZM113.584 32.2838H114.442L115.3 30.3532H119.375L120.233 32.2838H121.199L117.767 24.8832H117.016L113.584 32.2838ZM115.621 29.6025L117.338 25.8485L119.054 29.6025H115.621ZM123.88 32.2838H124.738V29.3879L127.849 24.9905H126.883L124.309 28.6372L121.735 24.9905H120.662L123.773 29.4952V32.2838H123.88ZM133.426 32.2838H138.574V31.5331H134.284V24.8832H133.426V32.2838ZM139.539 32.2838H140.397L141.255 30.3532H145.331L146.189 32.2838H147.155L143.722 24.8832H142.972L139.539 32.2838ZM141.577 29.6025L143.293 25.8485L145.009 29.6025H141.577ZM149.729 32.2838H150.587V25.634H153.161V24.8832H147.262V25.634H149.836V32.2838H149.729ZM154.662 32.2838H160.132V31.5331H155.52V28.9589H159.596V28.2081H155.52V25.7413H160.132V24.9905H154.662V32.2838ZM161.956 32.2838H162.814V29.3879H164.959L167.104 32.2838H168.177L165.817 29.2807C166.997 29.0662 167.855 28.3154 167.855 27.1356C167.855 26.492 167.64 26.063 167.319 25.634C166.89 25.205 166.139 24.8832 165.173 24.8832H161.956V32.2838ZM162.814 28.6372V25.634H165.173C166.353 25.634 167.104 26.1703 167.104 27.1356C167.104 28.1009 166.246 28.6372 165.173 28.6372H162.814Z" fill="black"/>
<path fill-rule="evenodd" clip-rule="evenodd" d="M2.78864 0H14.3722V4.29022H7.61514C7.18612 4.29022 6.86435 4.61199 6.86435 5.04101V8.79495C6.86435 9.22397 7.18612 9.54574 7.61514 9.54574H19.6278L6.54259 25.4196C6.43533 25.5268 6.43533 25.7413 6.43533 25.8486V28.959C6.43533 29.388 6.7571 29.7098 7.18612 29.7098H14.3722V34H2.78864C1.28707 34 0 32.7129 0 31.2114V2.78864C0 1.28707 1.28707 0 2.78864 0ZM19.4132 4.29022V0H30.9968C32.4984 0 33.7855 1.28707 33.7855 2.78864V31.2114C33.7855 32.7129 32.4984 34 30.9968 34H19.4132V29.7098H26.5994C27.0284 29.7098 27.3502 29.388 27.3502 28.959V25.205C27.3502 24.776 27.0284 24.4543 26.5994 24.4543H14.1577L27.1356 8.58044C27.2429 8.47319 27.3502 8.25867 27.3502 8.15142V5.04101C27.3502 4.61199 27.0284 4.29022 26.5994 4.29022H19.4132Z" fill="#303493"/>
</svg>
