<svg width="121" height="24" viewBox="0 0 121 24" fill="none" xmlns="http://www.w3.org/2000/svg">
<g opacity="0.5">
<path d="M32.0253 13.4005H42.0947V12.1135H33.9937L42.1704 1.74124V0.83272H32.3281V2.11979H40.2019L32.0253 12.4163V13.4005ZM49.6656 13.6277C53.5268 13.6277 56.101 10.5993 56.101 7.11663C56.101 3.63398 53.5268 0.605591 49.6656 0.605591C45.8044 0.605591 43.2303 3.63398 43.2303 7.11663C43.306 10.5993 45.8802 13.6277 49.6656 13.6277ZM49.7414 12.2649C46.8644 12.2649 44.7445 9.91789 44.7445 7.04092C44.7445 4.16395 46.7887 1.81695 49.6656 1.81695C52.5426 1.81695 54.6625 4.16395 54.6625 7.04092C54.6625 9.9936 52.6183 12.2649 49.7414 12.2649ZM64.0505 13.6277C67.9117 13.6277 70.4858 10.5993 70.4858 7.11663C70.4858 3.63398 67.9117 0.605591 64.0505 0.605591C60.1893 0.605591 57.6152 3.63398 57.6152 7.11663C57.6909 10.5993 60.265 13.6277 64.0505 13.6277ZM64.1262 12.2649C61.2492 12.2649 59.1294 9.91789 59.1294 7.04092C59.1294 4.16395 61.1735 1.81695 64.0505 1.81695C66.9275 1.81695 69.0473 4.16395 69.0473 7.04092C69.0473 9.9936 67.0032 12.2649 64.1262 12.2649ZM72.4543 13.4005H76.8455C80.7824 13.4005 83.5079 10.675 83.5079 7.11663C83.5079 3.55827 80.7824 0.83272 76.8455 0.83272H72.4543V13.4005ZM73.8928 12.1135V2.11979H76.8455C80.0253 2.11979 82.0694 4.31537 82.0694 7.11663C82.0694 9.91789 80.0253 12.1135 76.8455 12.1135H73.8928ZM86.2335 13.4005H89.0347V9.61506H91.1546C93.9559 9.61506 96.2272 8.10086 96.2272 5.22389C96.2272 2.64975 94.4101 0.83272 91.3817 0.83272H86.2335V13.4005ZM89.0347 7.19234V3.33114H91.1546C92.5174 3.33114 93.4259 4.01253 93.4259 5.22389C93.4259 6.35953 92.5931 7.19234 91.2303 7.19234H89.0347ZM95.6972 13.4005H98.4985L99.6341 10.5993H104.934L106.069 13.4005H108.946L103.647 0.75701H101.073L95.6972 13.4005ZM100.694 8.10086L102.36 4.01253L104.025 8.10086H100.694ZM112.429 13.4005H115.23V8.4037L120.076 0.83272H116.896L113.868 5.90528L110.839 0.83272H107.584L112.429 8.47941V13.4005Z" fill="white"/>
<path d="M32.101 22.7886H34.448C35.5836 22.7886 36.4164 22.2586 36.4164 21.3501C36.4164 20.593 35.8864 20.2902 35.2808 20.0631C35.735 19.9116 36.1136 19.5331 36.1136 18.8517C36.1136 18.4731 35.9622 18.246 35.735 18.0189C35.4322 17.716 34.9779 17.5646 34.3722 17.5646H32.101V22.7886ZM32.6309 19.9116V18.0946H34.2208C34.9779 18.0946 35.4322 18.3974 35.4322 18.9274C35.4322 19.5331 34.9022 19.8359 34.2208 19.8359H32.6309V19.9116ZM32.6309 22.2586V20.4416H34.2965C35.2051 20.4416 35.735 20.7444 35.735 21.3501C35.735 21.9558 35.2051 22.2586 34.448 22.2586H32.6309ZM39.7476 22.8643C41.1104 22.8643 41.9432 22.1072 41.9432 20.593V17.6403H41.3375V20.6687C41.3375 21.8044 40.7319 22.4101 39.7476 22.4101C38.6877 22.4101 38.082 21.8044 38.082 20.6687V17.6403H37.4763V20.6687C37.4763 22.0315 38.3849 22.8643 39.7476 22.8643ZM45.0473 22.7886H45.653V20.7444L47.8486 17.6403H47.1672L45.3502 20.2145L43.5331 17.6403H42.776L44.9716 20.8201V22.7886H45.0473ZM51.5584 22.7886H52.164V18.5489L55.6467 22.7886H56.101V17.5646H55.4953V21.7287L52.164 17.5646H51.6341V22.7886H51.5584ZM60.0379 22.8643C61.6278 22.8643 62.7634 21.5772 62.7634 20.1388C62.7634 18.7003 61.7035 17.4132 60.0379 17.4132C58.448 17.4132 57.3123 18.7003 57.3123 20.1388C57.3123 21.653 58.448 22.8643 60.0379 22.8643ZM60.0379 22.3343C58.8265 22.3343 57.918 21.3501 57.918 20.2145C57.918 19.0031 58.7508 18.0946 60.0379 18.0946C61.3249 18.0946 62.1577 19.0788 62.1577 20.2145C62.1577 21.3501 61.3249 22.3343 60.0379 22.3343ZM65.2618 22.7886H65.7918L67.2303 18.5489L68.6688 22.7886H69.1987L71.0915 17.5646H70.4858L68.9716 21.8801L67.5331 17.4889H67.0032L65.5647 21.8801L64.0505 17.5646H63.3691L65.2618 22.7886ZM71.3943 23.6971C72 23.5457 72.2271 23.2429 72.2271 22.7129V22.0315H71.5457V22.7886H71.8486L71.6215 22.8643C71.3186 22.94 71.6972 23.3186 71.3186 23.47L71.3943 23.6971ZM76.0883 22.7886H76.694V20.9716H77.9811C79.1167 20.9716 80.101 20.3659 80.101 19.2302C80.101 18.1703 79.3438 17.5646 78.1325 17.5646H76.164V22.7886H76.0883ZM76.694 20.3659V18.0946H78.0568C78.8896 18.0946 79.4953 18.4731 79.4953 19.2302C79.4953 19.9116 78.8896 20.3659 78.0568 20.3659H76.694ZM80.1767 22.7886H80.7823L81.388 21.4258H84.265L84.8707 22.7886H85.5521L83.1293 17.5646H82.5994L80.1767 22.7886ZM81.6151 20.8959L82.8265 18.246L84.0379 20.8959H81.6151ZM87.4448 22.7886H88.0505V20.7444L90.2461 17.6403H89.5647L87.7476 20.2145L85.9306 17.6403H85.1735L87.3691 20.8201V22.7886H87.4448ZM94.183 22.7886H97.817V22.2586H94.7886V17.5646H94.183V22.7886ZM98.4984 22.7886H99.1041L99.7098 21.4258H102.587L103.192 22.7886H103.874L101.451 17.5646H100.921L98.4984 22.7886ZM99.9369 20.8959L101.148 18.246L102.36 20.8959H99.9369ZM105.691 22.7886H106.297V18.0946H108.114V17.5646H103.95V18.0946H105.767V22.7886H105.691ZM109.174 22.7886H113.035V22.2586H109.779V20.4416H112.656V19.9116H109.779V18.1703H113.035V17.6403H109.174V22.7886ZM114.322 22.7886H114.927V20.7444H116.442L117.956 22.7886H118.713L117.047 20.6687C117.88 20.5173 118.486 19.9873 118.486 19.1545C118.486 18.7003 118.334 18.3974 118.107 18.0946C117.804 17.7918 117.274 17.5646 116.593 17.5646H114.322V22.7886ZM114.927 20.2145V18.0946H116.593C117.426 18.0946 117.956 18.4731 117.956 19.1545C117.956 19.8359 117.35 20.2145 116.593 20.2145H114.927Z" fill="white"/>
<path fill-rule="evenodd" clip-rule="evenodd" d="M1.96845 0H10.1451V3.02839H5.37539C5.07256 3.02839 4.84543 3.25552 4.84543 3.55836V6.2082C4.84543 6.51104 5.07256 6.73817 5.37539 6.73817H13.8549L4.6183 17.9432C4.54259 18.0189 4.54259 18.1703 4.54259 18.2461V20.4416C4.54259 20.7445 4.76972 20.9716 5.07256 20.9716H10.1451V24H1.96845C0.908517 24 0 23.0915 0 22.0315V1.96845C0 0.908517 0.908517 0 1.96845 0ZM13.7035 3.02839V0H21.8801C22.9401 0 23.8486 0.908517 23.8486 1.96845V22.0315C23.8486 23.0915 22.9401 24 21.8801 24H13.7035V20.9716H18.776C19.0789 20.9716 19.306 20.7445 19.306 20.4416V17.7918C19.306 17.489 19.0789 17.2618 18.776 17.2618H9.99369L19.1546 6.05678C19.2303 5.98107 19.306 5.82965 19.306 5.75394V3.55836C19.306 3.25552 19.0789 3.02839 18.776 3.02839H13.7035Z" fill="white"/>
</g>
</svg>
